# xmcd
#
# Track frame offsets:
#  150
#  12905
#  27373
#  39786
#  53780
#  65638
#  79186
#  90853
#  103158
#  115971
#  128309
#  138121
#  151589
#  164681
#  176047
#  187566
#  202587
#  214223
#  227243
#  241021
#  253863
#  264842
#  277943
#  290242
#  303633
#  316887
#
# Disc length: 4348 seconds
#
# Revision: 0
# Processed by: cddbd v1.5.1PL2 Copyright (c) Steve Scherf et al.
# Submitted via: Collectorz.com_Music_Collector 6.9
#
DISCID=5310fa1a
DTITLE=Various Artist - Never Let The Same Bee Sting You Twice [CD3]
DYEAR=2005
DGENRE=Blues - Blues Acoustic - Gospel
TTITLE0=Cedar Creek Sheik - Ford V-8
TTITLE1=Cedar Creek Sheik - Watch The Fords Go By
TTITLE2=Cedar Creek Sheik - Mary Had A Little Lamb
TTITLE3=Cedar Creek Sheik - She's Totin' Something Good
TTITLE4=Cedar Creek Sheik - What A Pity
TTITLE5=Cedar Creek Sheik - I Believe Somebody's Ridin' My Mule
TTITLE6=Cedar Creek Sheik - Don't Use That Stuff
TTITLE7=Cedar Creek Sheik - Buy It From The Poultry Man
TTITLE8=Cedar Creek Sheik - Don't Credit My Stuff
TTITLE9=Cedar Creek Sheik - Jimmy Shut His Store Doors
TTITLE10=Robert Hill - I Had A Gal For The Last Fifteen Years
TTITLE11=Robert Hill - Tell Me What's Wrong With You
TTITLE12=Robert Hill - You Gonna Look Like A Monkey When You Get Old
TTITLE13=Robert Hill - G Blues
TTITLE14=Robert Hill - Just Smilin'
TTITLE15=Robert Hill - Pal, How I Miss You Tonight
TTITLE16=Robert Hill - Lumber Yard Blues
TTITLE17=Robert Hill - I'm Goin' To Write And Tell My Mother
TTITLE18=Robert Hill - It Is So Good
TTITLE19=Robert Hill - Hill's Hot Sauce
TTITLE20=Virgil Childers - Dago Blues
TTITLE21=Virgil Childers - Red River Blues
TTITLE22=Virgil Childers - Who's That Knockin' At My Door
TTITLE23=Virgil Childers - Somebody Stole My Jane
TTITLE24=Virgil Childers - Travelin' Man
TTITLE25=Virgil Childers - Preacher And The Bear
EXTD=
EXTT0=
EXTT1=
EXTT2=
EXTT3=
EXTT4=
EXTT5=
EXTT6=
EXTT7=
EXTT8=
EXTT9=
EXTT10=
EXTT11=
EXTT12=
EXTT13=
EXTT14=
EXTT15=
EXTT16=
EXTT17=
EXTT18=
EXTT19=
EXTT20=
EXTT21=
EXTT22=
EXTT23=
EXTT24=
EXTT25=
PLAYORDER=
